REM DIRINDEX 1\2\6,1\2\7,1\2\8,1\3\9,1\3\10,1\3\11,1\4\12,1\4\13,1\4\14,1\5\15,1\5\16,1\5\17,1\5\18
REM DIRNAME folder01,folder02,folder03,folder04,folder05,folder06,folder07,folder08,folder09,folder10,folder11,folder12,folder13,folder14,folder15,folder16,folder17,folder18
TITLE ""
FILE "" MP3
  TRACK 01 AUDIO
    TITLE "15:cjc019_6119"
    INDEX 01 00:00:00
  TRACK 02 AUDIO
    TITLE "0:"
    INDEX 01 00:06:53
  TRACK 03 AUDIO
    TITLE "16:cjc019_6120"
    INDEX 01 00:07:64
  TRACK 04 AUDIO
    TITLE "0:"
    INDEX 01 00:08:73
  TRACK 05 AUDIO
    TITLE "18:cjc019_6121"
    INDEX 01 00:09:55
  TRACK 06 AUDIO
    TITLE "0:"
    INDEX 01 00:11:74
  TRACK 07 AUDIO
    TITLE "17:cjc019_6122"
    INDEX 01 00:12:56
  TRACK 08 AUDIO
    TITLE "0:"
    INDEX 01 00:13:65
  TRACK 09 AUDIO
    TITLE "16:cjc019_6123"
    INDEX 01 00:15:52
  TRACK 10 AUDIO
    TITLE "0:"
    INDEX 01 00:16:65
  TRACK 11 AUDIO
    TITLE "18:cjc019_6124"
    INDEX 01 00:17:41
  TRACK 12 AUDIO
    TITLE "0:"
    INDEX 01 00:19:56
  TRACK 13 AUDIO
    TITLE "17:cjc019_6125"
    INDEX 01 00:20:30
  TRACK 14 AUDIO
    TITLE "0:"
    INDEX 01 00:21:45
  TRACK 15 AUDIO
    TITLE "16:cjc019_6126"
    INDEX 01 00:23:30
  TRACK 16 AUDIO
    TITLE "0:"
    INDEX 01 00:24:33
  TRACK 17 AUDIO
    TITLE "18:cjc019_6127"
    INDEX 01 00:25:17
  TRACK 18 AUDIO
    TITLE "0:"
    INDEX 01 00:27:32
  TRACK 19 AUDIO
    TITLE "17:cjc019_6128"
    INDEX 01 00:28:17
  TRACK 20 AUDIO
    TITLE "0:"
    INDEX 01 00:29:21
  TRACK 21 AUDIO
    TITLE "16:cjc019_6129"
    INDEX 01 00:31:04
  TRACK 22 AUDIO
    TITLE "0:"
    INDEX 01 00:32:21
  TRACK 23 AUDIO
    TITLE "18:cjc019_6130"
    INDEX 01 00:33:03
  TRACK 24 AUDIO
    TITLE "0:"
    INDEX 01 00:34:06
  TRACK 25 AUDIO
    TITLE "17:cjc019_6131"
    INDEX 01 00:34:59
  TRACK 26 AUDIO
    TITLE "0:"
    INDEX 01 00:36:03
  TRACK 27 AUDIO
    TITLE "16:cjc019_6132"
    INDEX 01 00:37:63
  TRACK 28 AUDIO
    TITLE "0:"
    INDEX 01 00:39:03
  TRACK 29 AUDIO
    TITLE "18:cjc019_6133"
    INDEX 01 00:39:58
  TRACK 30 AUDIO
    TITLE "0:"
    INDEX 01 00:40:68
  TRACK 31 AUDIO
    TITLE "17:cjc019_6134"
    INDEX 01 00:41:42
  TRACK 32 AUDIO
    TITLE "0:"
    INDEX 01 00:42:57
  TRACK 33 AUDIO
    TITLE "16:cjc019_6135"
    INDEX 01 00:44:36
  TRACK 34 AUDIO
    TITLE "0:"
    INDEX 01 00:45:47
  TRACK 35 AUDIO
    TITLE "18:cjc019_6136"
    INDEX 01 00:46:35
  TRACK 36 AUDIO
    TITLE "0:"
    INDEX 01 00:48:44
  TRACK 37 AUDIO
    TITLE "17:cjc019_6137"
    INDEX 01 00:49:21
  TRACK 38 AUDIO
    TITLE "0:"
    INDEX 01 00:50:39
  TRACK 39 AUDIO
    TITLE "16:cjc019_6138"
    INDEX 01 00:52:18
  TRACK 40 AUDIO
    TITLE "0:"
    INDEX 01 00:53:51
  TRACK 41 AUDIO
    TITLE "18:cjc019_6139"
    INDEX 01 00:54:30
  TRACK 42 AUDIO
    TITLE "0:"
    INDEX 01 00:58:24
  TRACK 43 AUDIO
    TITLE "17:cjc019_6140"
    INDEX 01 00:59:02
  TRACK 44 AUDIO
    TITLE "0:"
    INDEX 01 01:00:35
  TRACK 45 AUDIO
    TITLE "16:cjc019_6141"
    INDEX 01 01:02:16
  TRACK 46 AUDIO
    TITLE "0:"
    INDEX 01 01:03:45
  TRACK 47 AUDIO
    TITLE "18:cjc019_6142"
    INDEX 01 01:04:27
  TRACK 48 AUDIO
    TITLE "0:"
    INDEX 01 01:07:14
  TRACK 49 AUDIO
    TITLE "17:cjc019_6143"
    INDEX 01 01:07:64
  TRACK 50 AUDIO
    TITLE "0:"
    INDEX 01 01:09:20
  TRACK 51 AUDIO
    TITLE "16:cjc019_6144"
    INDEX 01 01:11:07
  TRACK 52 AUDIO
    TITLE "0:"
    INDEX 01 01:12:32
  TRACK 53 AUDIO
    TITLE "18:cjc019_6145"
    INDEX 01 01:13:20
  TRACK 54 AUDIO
    TITLE "0:"
    INDEX 01 01:17:02
  TRACK 55 AUDIO
    TITLE "17:cjc019_6146"
    INDEX 01 01:17:59
  TRACK 56 AUDIO
    TITLE "0:"
    INDEX 01 01:19:17
  TRACK 57 AUDIO
    TITLE "16:cjc019_6147"
    INDEX 01 01:21:02
  TRACK 58 AUDIO
    TITLE "0:"
    INDEX 01 01:22:33
  TRACK 59 AUDIO
    TITLE "18:cjc019_6148"
    INDEX 01 01:23:16
  TRACK 60 AUDIO
    TITLE "0:"
    INDEX 01 01:24:37
  TRACK 61 AUDIO
    TITLE "17:cjc019_6149"
    INDEX 01 01:25:11
  TRACK 62 AUDIO
    TITLE "0:"
    INDEX 01 01:26:48
  TRACK 63 AUDIO
    TITLE "16:cjc019_6150"
    INDEX 01 01:28:29
  TRACK 64 AUDIO
    TITLE "0:"
    INDEX 01 01:29:56
  TRACK 65 AUDIO
    TITLE "18:cjc019_6151"
    INDEX 01 01:30:38
  TRACK 66 AUDIO
    TITLE "0:"
    INDEX 01 01:33:34
  TRACK 67 AUDIO
    TITLE "17:cjc019_6152"
    INDEX 01 01:34:12
  TRACK 68 AUDIO
    TITLE "0:"
    INDEX 01 01:35:45
  TRACK 69 AUDIO
    TITLE "16:cjc019_6153"
    INDEX 01 01:37:26
  TRACK 70 AUDIO
    TITLE "0:"
    INDEX 01 01:38:71
  TRACK 71 AUDIO
    TITLE "18:cjc019_6154"
    INDEX 01 01:39:57
  TRACK 72 AUDIO
    TITLE "0:"
    INDEX 01 01:41:69
  TRACK 73 AUDIO
    TITLE "17:cjc019_6155"
    INDEX 01 01:42:49
  TRACK 74 AUDIO
    TITLE "0:"
    INDEX 01 01:44:15
  TRACK 75 AUDIO
    TITLE "16:cjc019_6156"
    INDEX 01 01:45:71
  TRACK 76 AUDIO
    TITLE "0:"
    INDEX 01 01:47:11
  TRACK 77 AUDIO
    TITLE "18:cjc019_6157"
    INDEX 01 01:47:68
  TRACK 78 AUDIO
    TITLE "0:"
    INDEX 01 01:50:09
  TRACK 79 AUDIO
    TITLE "17:cjc019_6158"
    INDEX 01 01:50:54
  TRACK 80 AUDIO
    TITLE "0:"
    INDEX 01 01:51:72
  TRACK 81 AUDIO
    TITLE "16:cjc019_6159"
    INDEX 01 01:53:49
  TRACK 82 AUDIO
    TITLE "0:"
    INDEX 01 01:54:74
  TRACK 83 AUDIO
    TITLE "18:cjc019_6160"
    INDEX 01 01:55:62
  TRACK 84 AUDIO
    TITLE "0:"
    INDEX 01 01:58:27
  TRACK 85 AUDIO
    TITLE "17:cjc019_6161"
    INDEX 01 01:59:04
  TRACK 86 AUDIO
    TITLE "0:"
    INDEX 01 02:00:29
  TRACK 87 AUDIO
    TITLE "16:cjc019_6162"
    INDEX 01 02:02:15
  TRACK 88 AUDIO
    TITLE "0:"
    INDEX 01 02:03:53
  TRACK 89 AUDIO
    TITLE "18:cjc019_6163"
    INDEX 01 02:04:33
  TRACK 90 AUDIO
    TITLE "0:"
    INDEX 01 02:05:74
  TRACK 91 AUDIO
    TITLE "17:cjc019_6164"
    INDEX 01 02:06:52
  TRACK 92 AUDIO
    TITLE "0:"
    INDEX 01 02:08:17
  TRACK 93 AUDIO
    TITLE "16:cjc019_6165"
    INDEX 01 02:09:68
  TRACK 94 AUDIO
    TITLE "0:"
    INDEX 01 02:11:08
  TRACK 95 AUDIO
    TITLE "18:cjc019_6166"
    INDEX 01 02:11:66
  TRACK 96 AUDIO
    TITLE "0:"
    INDEX 01 02:14:08
  TRACK 97 AUDIO
    TITLE "17:cjc019_6167"
    INDEX 01 02:14:57
  TRACK 98 AUDIO
    TITLE "0:"
    INDEX 01 02:16:03
  TRACK 99 AUDIO
    TITLE "16:cjc019_6168"
    INDEX 01 02:17:67
  TRACK 100 AUDIO
    TITLE "0:"
    INDEX 01 02:19:05
  TRACK 101 AUDIO
    TITLE "18:cjc019_6169"
    INDEX 01 02:19:60
  TRACK 102 AUDIO
    TITLE "0:"
    INDEX 01 02:20:58
  TRACK 103 AUDIO
    TITLE "17:cjc019_6170"
    INDEX 01 02:21:35
  TRACK 104 AUDIO
    TITLE "0:"
    INDEX 01 02:22:53
